# xmcd
#
# Track frame offsets:
#	150
#	14457
#	25450
#	40717
#	56622
#	73100
#	90540
#	104342
#	123977
#	137780
#
# Disc length: 2008 seconds
#
# Revision: 8
# Processed by: cddbd v1.5.2PL0 Copyright (c) Steve Scherf et al.
# Submitted via: EasyCDDAExtractor 16.1.0.1
#
DISCID=8607d60a
DTITLE=Collin Raye - All I CAN BE
DYEAR=1991
DGENRE=Country
TTITLE0=All I can be (is a sweet memory)
TTITLE1=Every second
TTITLE2=Faithful old flame
TTITLE3='Scuse moi, my heart
TTITLE4=Any old stretch of blacktop
TTITLE5=Love, me
TTITLE6=Blue magic
TTITLE7=It could've been so good
TTITLE8=Sadly ever after
TTITLE9=If I were you
EXTD=
EXTT0=
EXTT1=
EXTT2=
EXTT3=
EXTT4=
EXTT5=
EXTT6=
EXTT7=
EXTT8=
EXTT9=
PLAYORDER=
